<?xml version="1.0" encoding="UTF-8"?>
<svg id="Layer_1" data-name="Layer 1" xmlns="http://www.w3.org/2000/svg" viewBox="0 0 166.18 166.18">
  <defs>
    <style>
      .cls-1 {
        fill: #bba263;
      }

      .cls-2 {
        fill: #231f20;
      }
    </style>
  </defs>
  <polygon class="cls-1" points="166.18 37.92 166.18 21.26 166.18 21.02 166.18 0 0 0 0 21.02 0 21.26 0 42.05 0 42.05 0 61 0 61.27 0 84.09 166.18 84.09 166.18 61.27 166.18 61 166.18 37.92 166.18 37.92"/>
  <polygon class="cls-1" points="166.18 120.01 166.18 103.35 166.18 103.11 166.18 82.09 0 82.09 0 103.11 0 103.35 0 124.14 0 124.14 0 143.1 0 143.36 0 166.18 166.18 166.18 166.18 143.36 166.18 143.1 166.18 120.01 166.18 120.01"/>
  <polygon class="cls-2" points="164.18 38.11 164.18 22.25 164.18 22.02 164.18 2 2 2 2 22.02 2 22.25 2 42.05 2 42.05 2 60.1 2 60.35 2 82.09 164.18 82.09 164.18 60.35 164.18 60.1 164.18 38.11 164.18 38.11"/>
  <polygon class="cls-1" points="164.18 120.2 164.18 104.34 164.18 104.12 164.18 84.09 2 84.09 2 104.12 2 104.34 2 124.14 2 124.14 2 142.19 2 142.44 2 164.18 164.18 164.18 164.18 142.44 164.18 142.19 164.18 120.2 164.18 120.2"/>
  <g>
    <g>
      <path class="cls-2" d="M23.1,123.76v-16.01h11.33v2.93h-7.92v3.48h7.75v2.93h-7.75v3.72h7.92v2.95h-11.33Z"/>
      <path class="cls-2" d="M39.29,118.91c1.13,1.18,2.88,2.16,5.09,2.16,1.87,0,2.78-.89,2.78-1.8,0-1.2-1.39-1.61-3.24-2.04-2.62-.6-5.98-1.32-5.98-4.9,0-2.66,2.3-4.83,6.07-4.83,2.54,0,4.66.77,6.24,2.23l-1.9,2.5c-1.3-1.2-3.02-1.75-4.58-1.75s-2.35.67-2.35,1.63c0,1.08,1.34,1.42,3.19,1.85,2.64.6,6,1.39,6,4.95,0,2.93-2.09,5.14-6.41,5.14-3.07,0-5.28-1.03-6.79-2.54l1.87-2.59Z"/>
      <path class="cls-2" d="M54.87,118.91c1.13,1.18,2.88,2.16,5.09,2.16,1.87,0,2.78-.89,2.78-1.8,0-1.2-1.39-1.61-3.24-2.04-2.62-.6-5.98-1.32-5.98-4.9,0-2.66,2.3-4.83,6.07-4.83,2.54,0,4.66.77,6.24,2.23l-1.9,2.5c-1.3-1.2-3.02-1.75-4.58-1.75s-2.35.67-2.35,1.63c0,1.08,1.34,1.42,3.19,1.85,2.64.6,6,1.39,6,4.95,0,2.93-2.09,5.14-6.41,5.14-3.07,0-5.28-1.03-6.79-2.54l1.87-2.59Z"/>
      <path class="cls-2" d="M69.83,123.76v-16.01h11.33v2.93h-7.92v3.48h7.75v2.93h-7.75v3.72h7.92v2.95h-11.33Z"/>
      <path class="cls-2" d="M96.83,123.76l-7.63-10.75v10.75h-3.41v-16.01h3.5l7.42,10.37v-10.37h3.41v16.01h-3.29Z"/>
      <path class="cls-2" d="M108.31,123.76v-13.01h-4.68v-3h12.77v3h-4.66v13.01h-3.43Z"/>
      <path class="cls-2" d="M119.89,123.76v-16.01h3.41v16.01h-3.41Z"/>
      <path class="cls-2" d="M139.36,123.76l-1.01-2.76h-7.15l-1.01,2.76h-3.75l6.19-16.01h4.27l6.17,16.01h-3.72ZM134.77,110.7l-2.66,7.35h5.31l-2.64-7.35Z"/>
    </g>
    <g>
      <path class="cls-2" d="M59.46,130.01c2.15,0,3.5,1.04,4.3,2.27l-1.84,1c-.48-.73-1.37-1.31-2.46-1.31-1.88,0-3.25,1.45-3.25,3.41s1.37,3.41,3.25,3.41c.95,0,1.79-.39,2.24-.79v-1.26h-2.77v-1.9h4.95v3.97c-1.06,1.18-2.54,1.96-4.42,1.96-3.03,0-5.53-2.12-5.53-5.39s2.49-5.37,5.53-5.37Z"/>
      <path class="cls-2" d="M72.76,140.56l-2.04-3.72h-1.62v3.72h-2.21v-10.39h4.86c2.16,0,3.49,1.42,3.49,3.35s-1.15,2.82-2.27,3.08l2.34,3.95h-2.54ZM71.42,132.08h-2.32v2.86h2.32c.89,0,1.56-.56,1.56-1.43s-.67-1.43-1.56-1.43Z"/>
      <path class="cls-2" d="M83.07,130.01c3.15,0,5.43,2.24,5.43,5.37s-2.29,5.37-5.43,5.37-5.42-2.24-5.42-5.37,2.29-5.37,5.42-5.37ZM83.07,131.97c-1.91,0-3.14,1.46-3.14,3.41s1.23,3.41,3.14,3.41,3.16-1.48,3.16-3.41-1.25-3.41-3.16-3.41Z"/>
      <path class="cls-2" d="M91.32,130.18h2.24v6.17c0,1.45.79,2.44,2.41,2.44s2.38-1,2.38-2.44v-6.17h2.24v6.23c0,2.58-1.48,4.34-4.62,4.34s-4.66-1.77-4.66-4.33v-6.24Z"/>
      <path class="cls-2" d="M103.91,140.56v-10.39h4.86c2.26,0,3.49,1.53,3.49,3.35s-1.24,3.32-3.49,3.32h-2.65v3.72h-2.21ZM108.47,132.08h-2.35v2.86h2.35c.87,0,1.53-.56,1.53-1.43s-.65-1.43-1.53-1.43Z"/>
    </g>
  </g>
  <g>
    <path class="cls-1" d="M89.9,28.45l-5.44,5.44,2.72,2.72-1.36,1.36-1.36-1.36h0s-1.36-1.36-1.36-1.36l-2.72,2.72-1.36-1.36,2.72-2.72h0s0,0,0,0l-4.08-4.08h0s-4.08,4.08-4.08,4.08h0s2.72,2.72,2.72,2.72l-1.36,1.36-4.08-4.08,6.27-6.27h8.16l-3.54,3.54,1.36,1.36,4.9-4.9h0l1.92-1.92h0,0s-1.23,0-1.23,0h-12.38s-8.19,8.19-8.19,8.19l1.36,1.36h0s4.08,4.08,4.08,4.08l1.36,1.36,1.36-1.36h0l1.36-1.36,1.36,1.36-1.36,1.36h0l-1.36,1.36,2.72,2.72-1.36,1.36-2.72-2.72h0s0,0,0,0l-4.08,4.08,1.36,1.36,1.36,1.36h0l1.36,1.36,2.72-2.72,1.36,1.36-4.08,4.08-6.27-6.27v-8.16l3.54,3.54,1.36-1.36-4.9-4.9h0s-1.92-1.93-1.92-1.93h0s0,0,0,0v1.22s0,12.38,0,12.38h0s8.19,8.2,8.19,8.2l1.36-1.36h0s5.44-5.45,5.44-5.45l-2.72-2.72,1.36-1.36,1.36,1.36h0l1.36,1.36,2.72-2.72,1.36,1.36-2.72,2.72h0s0,0,0,0l4.08,4.08h0s2.72-2.72,2.72-2.72l1.36-1.36h0s-2.72-2.72-2.72-2.72l1.36-1.36,4.08,4.08-6.27,6.27h-8.16l3.54-3.54-1.36-1.36-4.9,4.9h0l-1.92,1.92h0,0s1.23,0,1.23,0h12.38s8.19-8.19,8.19-8.19l-1.36-1.36h0s-4.08-4.08-4.08-4.08h0l-1.36-1.36-1.36,1.36h0l-1.36,1.36-1.36-1.36,1.36-1.36h0s1.36-1.36,1.36-1.36l-2.72-2.72,1.36-1.36,2.72,2.72h0s0,0,0,0l4.08-4.08h0s-1.36-1.36-1.36-1.36l-1.36-1.36-1.36-1.36h0s-2.72,2.72-2.72,2.72l-1.36-1.36,4.08-4.08,6.27,6.27v8.16l-3.54-3.54-1.36,1.36,4.9,4.9h0s1.92,1.93,1.92,1.93h0s0,0,0,0v-1.22s0-12.38,0-12.38h0s-8.19-8.2-8.19-8.2l-1.36,1.36h0ZM76.29,33.88l1.36-1.36,1.36,1.36-1.36,1.36-1.36-1.36ZM74.93,48.85l-1.36-1.36,1.36-1.36,1.36,1.36-1.36,1.36ZM89.89,50.21l-1.36,1.36-1.36-1.36,1.36-1.36,1.36,1.36ZM83.09,37.96l1.36,1.36-1.36,1.36-1.36-1.36,1.36-1.36ZM79.01,42.05l1.36-1.36,1.36,1.36-1.36,1.36-1.36-1.36ZM83.09,46.13l-1.36-1.36,1.36-1.36,1.36,1.36-1.36,1.36ZM87.17,42.05l-1.36,1.36-1.36-1.36,1.36-1.36,1.36,1.36ZM91.25,35.24l1.36,1.36-1.36,1.36-1.36-1.36,1.36-1.36Z"/>
    <path class="cls-1" d="M91.46,21.84h-16.74l-11.83,11.83v16.74l11.83,11.83h16.74l11.83-11.83v-16.74l-11.83-11.83ZM101.37,49.62l-10.71,10.71h-15.14l-10.71-10.71v-15.14l10.71-10.71h15.14l10.71,10.71v15.14Z"/>
  </g>
</svg>